<mxfile host="app.diagrams.net" modified="2024-04-30T14:24:44.093Z" agent="Mozilla/5.0 (Windows NT 10.0; Win64; x64) AppleWebKit/537.36 (KHTML, like Gecko) Chrome/124.0.0.0 Safari/537.36" etag="VD-zK84ura5k1fC9NMfe" version="24.3.1" type="device">
  <diagram name="Página-1" id="GMBwTObOTepcJPKNkBG1">
    <mxGraphModel dx="1434" dy="772" grid="0" gridSize="10" guides="1" tooltips="1" connect="1" arrows="1" fold="1" page="1" pageScale="1" pageWidth="827" pageHeight="1169" math="0" shadow="0">
      <root>
        <mxCell id="0" />
        <mxCell id="1" parent="0" />
        <mxCell id="RLQ-CFG3dJUDpfiLeXlP-1" value="Tabela Usuário" style="swimlane;fontStyle=0;childLayout=stackLayout;horizontal=1;startSize=26;fillColor=none;horizontalStack=0;resizeParent=1;resizeParentMax=0;resizeLast=0;collapsible=1;marginBottom=0;whiteSpace=wrap;html=1;" vertex="1" parent="1">
          <mxGeometry x="60" y="360" width="140" height="156" as="geometry" />
        </mxCell>
        <mxCell id="RLQ-CFG3dJUDpfiLeXlP-2" value="usuario: CharField" style="text;strokeColor=none;fillColor=none;align=left;verticalAlign=top;spacingLeft=4;spacingRight=4;overflow=hidden;rotatable=0;points=[[0,0.5],[1,0.5]];portConstraint=eastwest;whiteSpace=wrap;html=1;" vertex="1" parent="RLQ-CFG3dJUDpfiLeXlP-1">
          <mxGeometry y="26" width="140" height="26" as="geometry" />
        </mxCell>
        <mxCell id="RLQ-CFG3dJUDpfiLeXlP-3" value="pri_nome: CharField" style="text;strokeColor=none;fillColor=none;align=left;verticalAlign=top;spacingLeft=4;spacingRight=4;overflow=hidden;rotatable=0;points=[[0,0.5],[1,0.5]];portConstraint=eastwest;whiteSpace=wrap;html=1;" vertex="1" parent="RLQ-CFG3dJUDpfiLeXlP-1">
          <mxGeometry y="52" width="140" height="26" as="geometry" />
        </mxCell>
        <mxCell id="RLQ-CFG3dJUDpfiLeXlP-4" value="ult_nome:CharField" style="text;strokeColor=none;fillColor=none;align=left;verticalAlign=top;spacingLeft=4;spacingRight=4;overflow=hidden;rotatable=0;points=[[0,0.5],[1,0.5]];portConstraint=eastwest;whiteSpace=wrap;html=1;" vertex="1" parent="RLQ-CFG3dJUDpfiLeXlP-1">
          <mxGeometry y="78" width="140" height="26" as="geometry" />
        </mxCell>
        <mxCell id="RLQ-CFG3dJUDpfiLeXlP-9" value="email: CharField" style="text;strokeColor=none;fillColor=none;align=left;verticalAlign=top;spacingLeft=4;spacingRight=4;overflow=hidden;rotatable=0;points=[[0,0.5],[1,0.5]];portConstraint=eastwest;whiteSpace=wrap;html=1;" vertex="1" parent="RLQ-CFG3dJUDpfiLeXlP-1">
          <mxGeometry y="104" width="140" height="26" as="geometry" />
        </mxCell>
        <mxCell id="RLQ-CFG3dJUDpfiLeXlP-10" value="senha: CharField" style="text;strokeColor=none;fillColor=none;align=left;verticalAlign=top;spacingLeft=4;spacingRight=4;overflow=hidden;rotatable=0;points=[[0,0.5],[1,0.5]];portConstraint=eastwest;whiteSpace=wrap;html=1;" vertex="1" parent="RLQ-CFG3dJUDpfiLeXlP-1">
          <mxGeometry y="130" width="140" height="26" as="geometry" />
        </mxCell>
        <mxCell id="RLQ-CFG3dJUDpfiLeXlP-11" value="Tabela DadosPessoais" style="swimlane;fontStyle=0;childLayout=stackLayout;horizontal=1;startSize=26;fillColor=none;horizontalStack=0;resizeParent=1;resizeParentMax=0;resizeLast=0;collapsible=1;marginBottom=0;whiteSpace=wrap;html=1;" vertex="1" parent="1">
          <mxGeometry x="303" y="360" width="189" height="156" as="geometry" />
        </mxCell>
        <mxCell id="RLQ-CFG3dJUDpfiLeXlP-12" value="nome_completo: CharField" style="text;strokeColor=none;fillColor=none;align=left;verticalAlign=top;spacingLeft=4;spacingRight=4;overflow=hidden;rotatable=0;points=[[0,0.5],[1,0.5]];portConstraint=eastwest;whiteSpace=wrap;html=1;" vertex="1" parent="RLQ-CFG3dJUDpfiLeXlP-11">
          <mxGeometry y="26" width="189" height="26" as="geometry" />
        </mxCell>
        <mxCell id="RLQ-CFG3dJUDpfiLeXlP-13" value="data_nascimento:DateField" style="text;strokeColor=none;fillColor=none;align=left;verticalAlign=top;spacingLeft=4;spacingRight=4;overflow=hidden;rotatable=0;points=[[0,0.5],[1,0.5]];portConstraint=eastwest;whiteSpace=wrap;html=1;" vertex="1" parent="RLQ-CFG3dJUDpfiLeXlP-11">
          <mxGeometry y="52" width="189" height="26" as="geometry" />
        </mxCell>
        <mxCell id="RLQ-CFG3dJUDpfiLeXlP-14" value="cpf: IntegerField" style="text;strokeColor=none;fillColor=none;align=left;verticalAlign=top;spacingLeft=4;spacingRight=4;overflow=hidden;rotatable=0;points=[[0,0.5],[1,0.5]];portConstraint=eastwest;whiteSpace=wrap;html=1;" vertex="1" parent="RLQ-CFG3dJUDpfiLeXlP-11">
          <mxGeometry y="78" width="189" height="26" as="geometry" />
        </mxCell>
        <mxCell id="RLQ-CFG3dJUDpfiLeXlP-15" value="endereco: CharField" style="text;strokeColor=none;fillColor=none;align=left;verticalAlign=top;spacingLeft=4;spacingRight=4;overflow=hidden;rotatable=0;points=[[0,0.5],[1,0.5]];portConstraint=eastwest;whiteSpace=wrap;html=1;" vertex="1" parent="RLQ-CFG3dJUDpfiLeXlP-11">
          <mxGeometry y="104" width="189" height="26" as="geometry" />
        </mxCell>
        <mxCell id="RLQ-CFG3dJUDpfiLeXlP-16" value="usuario: OnetoOneField" style="text;strokeColor=none;fillColor=none;align=left;verticalAlign=top;spacingLeft=4;spacingRight=4;overflow=hidden;rotatable=0;points=[[0,0.5],[1,0.5]];portConstraint=eastwest;whiteSpace=wrap;html=1;" vertex="1" parent="RLQ-CFG3dJUDpfiLeXlP-11">
          <mxGeometry y="130" width="189" height="26" as="geometry" />
        </mxCell>
        <mxCell id="RLQ-CFG3dJUDpfiLeXlP-17" value="Tabela Produtos" style="swimlane;fontStyle=0;childLayout=stackLayout;horizontal=1;startSize=26;fillColor=none;horizontalStack=0;resizeParent=1;resizeParentMax=0;resizeLast=0;collapsible=1;marginBottom=0;whiteSpace=wrap;html=1;" vertex="1" parent="1">
          <mxGeometry x="583" y="360" width="204" height="182" as="geometry" />
        </mxCell>
        <mxCell id="RLQ-CFG3dJUDpfiLeXlP-18" value="nome: CharField" style="text;strokeColor=none;fillColor=none;align=left;verticalAlign=top;spacingLeft=4;spacingRight=4;overflow=hidden;rotatable=0;points=[[0,0.5],[1,0.5]];portConstraint=eastwest;whiteSpace=wrap;html=1;" vertex="1" parent="RLQ-CFG3dJUDpfiLeXlP-17">
          <mxGeometry y="26" width="204" height="26" as="geometry" />
        </mxCell>
        <mxCell id="RLQ-CFG3dJUDpfiLeXlP-19" value="descricao: TextField" style="text;strokeColor=none;fillColor=none;align=left;verticalAlign=top;spacingLeft=4;spacingRight=4;overflow=hidden;rotatable=0;points=[[0,0.5],[1,0.5]];portConstraint=eastwest;whiteSpace=wrap;html=1;" vertex="1" parent="RLQ-CFG3dJUDpfiLeXlP-17">
          <mxGeometry y="52" width="204" height="26" as="geometry" />
        </mxCell>
        <mxCell id="RLQ-CFG3dJUDpfiLeXlP-20" value="estoque:IntegerField" style="text;strokeColor=none;fillColor=none;align=left;verticalAlign=top;spacingLeft=4;spacingRight=4;overflow=hidden;rotatable=0;points=[[0,0.5],[1,0.5]];portConstraint=eastwest;whiteSpace=wrap;html=1;" vertex="1" parent="RLQ-CFG3dJUDpfiLeXlP-17">
          <mxGeometry y="78" width="204" height="26" as="geometry" />
        </mxCell>
        <mxCell id="RLQ-CFG3dJUDpfiLeXlP-21" value="valor: FloatField" style="text;strokeColor=none;fillColor=none;align=left;verticalAlign=top;spacingLeft=4;spacingRight=4;overflow=hidden;rotatable=0;points=[[0,0.5],[1,0.5]];portConstraint=eastwest;whiteSpace=wrap;html=1;" vertex="1" parent="RLQ-CFG3dJUDpfiLeXlP-17">
          <mxGeometry y="104" width="204" height="26" as="geometry" />
        </mxCell>
        <mxCell id="RLQ-CFG3dJUDpfiLeXlP-22" value="categoria:Foreignkey" style="text;strokeColor=none;fillColor=none;align=left;verticalAlign=top;spacingLeft=4;spacingRight=4;overflow=hidden;rotatable=0;points=[[0,0.5],[1,0.5]];portConstraint=eastwest;whiteSpace=wrap;html=1;" vertex="1" parent="RLQ-CFG3dJUDpfiLeXlP-17">
          <mxGeometry y="130" width="204" height="26" as="geometry" />
        </mxCell>
        <mxCell id="RLQ-CFG3dJUDpfiLeXlP-29" value="sub_categoria: Foreignkey" style="text;strokeColor=none;fillColor=none;align=left;verticalAlign=top;spacingLeft=4;spacingRight=4;overflow=hidden;rotatable=0;points=[[0,0.5],[1,0.5]];portConstraint=eastwest;whiteSpace=wrap;html=1;" vertex="1" parent="RLQ-CFG3dJUDpfiLeXlP-17">
          <mxGeometry y="156" width="204" height="26" as="geometry" />
        </mxCell>
        <mxCell id="RLQ-CFG3dJUDpfiLeXlP-23" value="Tabela CategoriasProdutos" style="swimlane;fontStyle=0;childLayout=stackLayout;horizontal=1;startSize=26;fillColor=none;horizontalStack=0;resizeParent=1;resizeParentMax=0;resizeLast=0;collapsible=1;marginBottom=0;whiteSpace=wrap;html=1;" vertex="1" parent="1">
          <mxGeometry x="590" y="581" width="207" height="52" as="geometry" />
        </mxCell>
        <mxCell id="RLQ-CFG3dJUDpfiLeXlP-24" value="nome: CharField" style="text;strokeColor=none;fillColor=none;align=left;verticalAlign=top;spacingLeft=4;spacingRight=4;overflow=hidden;rotatable=0;points=[[0,0.5],[1,0.5]];portConstraint=eastwest;whiteSpace=wrap;html=1;" vertex="1" parent="RLQ-CFG3dJUDpfiLeXlP-23">
          <mxGeometry y="26" width="207" height="26" as="geometry" />
        </mxCell>
        <mxCell id="RLQ-CFG3dJUDpfiLeXlP-27" value="Tabela SubCategoriasProdutos" style="swimlane;fontStyle=0;childLayout=stackLayout;horizontal=1;startSize=26;fillColor=none;horizontalStack=0;resizeParent=1;resizeParentMax=0;resizeLast=0;collapsible=1;marginBottom=0;whiteSpace=wrap;html=1;" vertex="1" parent="1">
          <mxGeometry x="599" y="664" width="207" height="52" as="geometry" />
        </mxCell>
        <mxCell id="RLQ-CFG3dJUDpfiLeXlP-28" value="nome: CharField" style="text;strokeColor=none;fillColor=none;align=left;verticalAlign=top;spacingLeft=4;spacingRight=4;overflow=hidden;rotatable=0;points=[[0,0.5],[1,0.5]];portConstraint=eastwest;whiteSpace=wrap;html=1;" vertex="1" parent="RLQ-CFG3dJUDpfiLeXlP-27">
          <mxGeometry y="26" width="207" height="26" as="geometry" />
        </mxCell>
        <mxCell id="RLQ-CFG3dJUDpfiLeXlP-30" value="" style="endArrow=classic;html=1;rounded=0;entryX=1;entryY=0;entryDx=0;entryDy=0;exitX=-0.016;exitY=1.077;exitDx=0;exitDy=0;exitPerimeter=0;" edge="1" parent="1" source="RLQ-CFG3dJUDpfiLeXlP-15">
          <mxGeometry width="50" height="50" relative="1" as="geometry">
            <mxPoint x="298" y="491" as="sourcePoint" />
            <mxPoint x="184" y="360" as="targetPoint" />
            <Array as="points">
              <mxPoint x="258" y="491" />
              <mxPoint x="258" y="360" />
            </Array>
          </mxGeometry>
        </mxCell>
        <mxCell id="RLQ-CFG3dJUDpfiLeXlP-31" value="" style="endArrow=classic;html=1;rounded=0;exitX=1;exitY=0;exitDx=0;exitDy=0;entryX=0;entryY=0.5;entryDx=0;entryDy=0;" edge="1" parent="1" source="RLQ-CFG3dJUDpfiLeXlP-11" target="RLQ-CFG3dJUDpfiLeXlP-29">
          <mxGeometry width="50" height="50" relative="1" as="geometry">
            <mxPoint x="525" y="481" as="sourcePoint" />
            <mxPoint x="575" y="431" as="targetPoint" />
            <Array as="points">
              <mxPoint x="543" y="360" />
              <mxPoint x="543" y="532" />
            </Array>
          </mxGeometry>
        </mxCell>
        <mxCell id="RLQ-CFG3dJUDpfiLeXlP-33" value="" style="endArrow=classic;html=1;rounded=0;exitX=0.483;exitY=1.154;exitDx=0;exitDy=0;exitPerimeter=0;" edge="1" parent="1" source="RLQ-CFG3dJUDpfiLeXlP-24">
          <mxGeometry width="50" height="50" relative="1" as="geometry">
            <mxPoint x="660" y="679" as="sourcePoint" />
            <mxPoint x="690" y="660" as="targetPoint" />
          </mxGeometry>
        </mxCell>
        <mxCell id="RLQ-CFG3dJUDpfiLeXlP-32" value="" style="endArrow=classic;html=1;rounded=0;exitX=0.426;exitY=1.077;exitDx=0;exitDy=0;exitPerimeter=0;" edge="1" parent="1" source="RLQ-CFG3dJUDpfiLeXlP-29">
          <mxGeometry width="50" height="50" relative="1" as="geometry">
            <mxPoint x="678" y="579" as="sourcePoint" />
            <mxPoint x="670" y="579" as="targetPoint" />
          </mxGeometry>
        </mxCell>
      </root>
    </mxGraphModel>
  </diagram>
</mxfile>
